<?xml version="1.0" encoding="UTF-8"?>
<!DOCTYPE svg PUBLIC "-//W3C//DTD SVG 1.1//EN" "http://www.w3.org/Graphics/SVG/1.1/DTD/svg11.dtd">
<!-- Creator: CorelDRAW 2019 (64-Bit) -->
<svg xmlns="http://www.w3.org/2000/svg" xml:space="preserve" width="3508px" height="2480px" version="1.1" style="shape-rendering:geometricPrecision; text-rendering:geometricPrecision; image-rendering:optimizeQuality; fill-rule:evenodd; clip-rule:evenodd"
viewBox="0 0 3508 2480.4"
 xmlns:xlink="http://www.w3.org/1999/xlink"
 xmlns:xodm="http://www.corel.com/coreldraw/odm/2003">
 <defs>
  <style type="text/css">
   <![CDATA[
    .str1 {stroke:white;stroke-width:8.86;stroke-miterlimit:22.9256}
    .str0 {stroke:#DD7A25;stroke-width:29.53;stroke-miterlimit:22.9256}
    .fil1 {fill:#1B2D43}
    .fil6 {fill:#1B2D43}
    .fil7 {fill:#A3B8BD}
    .fil8 {fill:#E0E7EA}
    .fil2 {fill:#F0843E}
    .fil5 {fill:white}
    .fil3 {fill:#1B2D43;fill-rule:nonzero}
    .fil4 {fill:#DD7A25;fill-rule:nonzero}
    .fil0 {fill:url(#id0)}
    .fil9 {fill:url(#id1)}
   ]]>
  </style>
  <linearGradient id="id0" gradientUnits="userSpaceOnUse" x1="1609.18" y1="1153.26" x2="1883.15" y2="1151.18">
   <stop offset="0" style="stop-opacity:1; stop-color:#F0843E"/>
   <stop offset="1" style="stop-opacity:1; stop-color:#EB4F39"/>
  </linearGradient>
  <linearGradient id="id1" gradientUnits="userSpaceOnUse" xlink:href="#id0" x1="647.24" y1="885.36" x2="1302.35" y2="889.94">
  </linearGradient>
 </defs>
 <g id="Слой_x0020_1">
  <metadata id="CorelCorpID_0Corel-Layer"/>
  <path class="fil0" d="M1747.8 745.26c226.39,0 409.91,183.15 409.91,409.07 0,152.3 -83.41,285.17 -207.13,355.58 -59.8,34.03 -127.45,21.19 -201.22,21.19 -76.94,0 -150.5,11.13 -212.02,-25.68 -119.48,-71.47 -199.45,-201.96 -199.45,-351.09 0,-225.92 183.52,-409.07 409.91,-409.07z"/>
  <path class="fil1" d="M1663.18 1832.65l166.03 -1.8 -15.75 11.66c-44.79,21 -111.75,17.3 -150.28,-9.86zm7.89 -84.88l90.88 -4.86 96.63 -4.96 87.4 -4.77c0.43,41.92 -4.32,33.77 -26.16,56.08 -22.24,22.72 -15.59,16.82 -64.35,16.94l-93.64 -0.01 -93.99 0.02c-81.36,-0.43 -66.26,12.07 -103.56,-24.48 -7.93,-7.79 -17.21,-11.7 -17.88,-25.55 11.96,-6.09 103.28,-7.48 124.67,-8.41zm184.73 -34.87c-23.98,1.1 -52.62,6.73 -75.58,1.68 -13.76,7.94 -89.48,6.92 -112.7,8.22 -21.88,1.12 -47.78,5.82 -68.56,1.15 -11.01,6.32 -37.38,4.97 -53.11,5.55l0.59 -50.42 26.85 -1.34c25.28,-1.08 65.01,-8.47 87.69,-2.06l101.39 -7.73c22.85,-1.64 52.63,-7.07 73.93,-1.59 8.07,-4.46 -1.57,-1.22 9.9,-3.04l42.13 -2.07c19.24,-1.02 38.53,-2.21 57.77,-2.94l-0.3 49.87 -90 4.72zm-309.53 -58.75l-0.44 -48.14 400.44 0.09 -0.65 27.03 -399.35 21.02zm587.25 -401.1c-3.27,17.86 -24.85,85.66 -41.75,100.35 -2.32,12.01 -31.85,55.33 -45.22,64.4 -6.01,12.39 -16.45,22.71 -27.34,30.22 -14.46,15.17 -44.32,36.87 -66.14,49.14 -8.12,11.07 -6.98,21.83 -6.94,40.26l-0.02 43.78 -90.76 0 -93.52 -0.02 -94.21 0.04 -93.64 -0.06 -27.9 0.01 0.01 -43.29c0.05,-45.52 0.12,-34.15 -29.7,-55.09 -15.2,-10.67 -34.71,-25.29 -47.35,-37.19 -19.48,-18.35 -60.35,-66.69 -73.02,-98.79 -15.46,-10.42 -50.99,-123.55 -45.8,-153.59 -12.99,-20.61 -0.27,-96.19 5.02,-121.75 3.96,-19.12 22.45,-84.8 38.91,-99.73 1.8,-23.08 61.77,-91.86 74.11,-102.72 27.76,-24.44 61.39,-54.88 105.19,-72.79 26.4,-13.93 57.55,-25.38 90.39,-31.66 21.09,-4.03 93.02,-14.34 111.1,-4.53 34.19,-9.61 118.65,23.46 154.45,40.97 3.8,1.86 7.17,3.44 10.27,5.43 7.27,4.67 4.62,2.38 6.45,5.61 24.85,10.12 80.2,53.57 88.37,68.95 8.69,6.18 4.22,-0.21 6.85,9.59 13.44,7.82 25.25,26.69 34.2,39.28 8.15,11.46 21.86,32.99 26.7,48.14 10.95,10.58 30.59,67.33 30.11,85.26 5.91,6.76 5.84,12.8 7.66,23.56 5.38,47.91 10.41,122.89 -6.48,166.22zm-465.29 -514.6c-16,3.3 -32.38,7.44 -46.97,11.63 -14.99,4.3 -29.82,13.09 -45.05,13.95 -4.05,5.25 -106.79,55.45 -152.74,116.36 -8.09,10.73 -16.3,20.51 -24.43,31.88 -15.76,22.09 -35.19,62.57 -42.08,67.57 -0.83,13.25 -9.07,28.49 -13.92,42.03 -4.9,13.72 -7.49,31.74 -12.78,43.68l-9 96.4 7.96 88.7c8.65,10.48 12.49,36.8 17.68,51.56 6.69,19.01 14.7,33.31 20.92,50.82 4.67,3.93 17.71,29.25 22.62,36.88 16.98,26.41 49.66,62.83 72.84,83.42 6.81,6.04 12.27,6.93 14.07,14.07 15.66,7.54 27.41,19.35 43.65,27.87l0.11 22.27 0.04 94.35 -0.19 21.16c-10.81,6.15 -21.25,-0.33 -24.05,13.38 -3.12,15.31 11.59,14.62 24.25,14.21l0 43.21c-1.77,16.44 -20.23,-1.53 -24.23,17.58 -3.16,15.07 11.55,14.62 24.04,14.27 0.84,37.84 28.94,37.09 38.98,60.07 8.37,4.49 3.41,1.72 10.05,7.17 2.23,1.84 6.87,6.08 8.7,7.59l49.4 0.74c28.38,51.64 143.22,68.53 211.3,24.34 10.35,-6.72 2.51,-4.53 13.01,-7.21 4.62,-7.88 7.38,-9.41 11.76,-17.22 58.35,-0.01 44.17,5.04 75.1,-25.57 28.95,-28.65 30.2,-16.57 32.1,-71.3 11.41,-6.66 11.34,0.82 23.68,-9.79l-1.39 -15.5 -22.68 -3.11c0.24,-70.25 -1.26,-39.29 19.14,-52.84 8.15,-5.41 5.91,-9.67 2.9,-18.48l-22.05 -3.74 0.09 -92.8 0.09 -22.77c12.02,-6.45 26.51,-16.81 36.89,-25.23l33.95 -28.78c5.02,-7.72 10.62,-14.67 21.89,-19.43 3.7,-9.55 19.42,-26.7 28.55,-39.32 9.88,-13.66 18.07,-27.8 27.57,-44.36 19.5,-33.98 25.69,-60.89 39.13,-98.89 5.13,-33.83 10.61,-59.32 11.75,-96.51l-5.22 -87.01c-6.4,-9.69 -10.86,-38.85 -17.36,-56.18 -7.51,-20 -12.8,-32.73 -21.35,-50.47 -21.02,-43.66 -50.23,-76.66 -55.9,-89.21 -7.36,-4.02 -7.02,-6.34 -13.72,-13.13 -7.22,-7.31 -9.88,-8.09 -15.07,-15.53 -13.9,-10.09 -23.98,-21.69 -39.44,-33.09 -10.19,-7.53 -38.43,-24.49 -43.7,-32.17 -8.69,-0.76 -1.72,3.73 -10.22,-3.89 -17.02,-5.97 -30.59,-14.73 -48.06,-21.28 -10.68,-4 -44.99,-13.57 -50.03,-18.57 -17.38,0.99 -63.17,-9.04 -89.09,-10.32 -34.49,-1.73 -60.97,2.37 -93.49,6.54z"/>
  <path class="fil2 str0" d="M2416.14 752.79c-2.31,2.63 -169.33,103.66 -183.18,104.99 -4.93,6.41 -0.21,2.05 -8.53,7.97 -2.47,1.75 -4.78,2.81 -7.92,4.57 -6.36,3.56 -11.94,7.22 -16.22,11.06l1.43 15.45c5.38,1.46 6.33,2 12.15,1.51 7.19,-0.61 4.51,-2.27 14.37,-3.2 6.92,-9.27 16.86,-13.27 27.23,-16.96l64.59 -37.77 98.73 -58.44c15.69,-8.4 25.29,-8.63 18.71,-29.72l-21.36 0.54z"/>
  <path class="fil2 str0" d="M1105.82 1510.82c-10.98,7.02 -33.43,23.03 -47.7,25.1 -7.22,12.25 -10.75,32.54 13.35,24.09 10.45,-3.66 22.75,-13.9 37.08,-19.51l4.97 -2.64c0.61,-0.61 1.57,-2.33 1.9,-1.74l17.82 -11.55c18.31,-10.07 53.22,-32.86 66.89,-37.36 9.86,-9.23 35.8,-22.07 49.89,-30.23 8.74,-5.06 16.31,-9.69 25.92,-14.66 14.35,-7.42 14.14,-5.19 18.13,-22.96 -18.83,-12.55 -31.75,1.85 -50.44,12.47l-91.16 52.56c-14.86,8.21 -30.39,18.8 -46.65,26.43z"/>
  <path class="fil2 str0" d="M2106.17 505.85l-48.78 86.39c-1.53,2.49 -2.14,3.59 -3.95,5.92 -3.29,4.22 -1.57,2.46 -5.34,5.45l-2.41 5.67c-7.8,20.83 -41.25,66.22 -42.66,83.33 15.29,31.52 34.97,-16.84 42.71,-30.57 10.79,-19.13 22.89,-41.36 33.99,-58.8 8.68,-16.34 48.77,-89.11 58.46,-96.22 0.89,-10.34 -1.96,-1.84 4.65,-13.54 2.73,-4.84 5.11,-6.71 7.11,-12 5.86,-15.5 -2.36,-18.87 -16.33,-19.11l-27.45 43.48z"/>
  <path class="fil2 str0" d="M1350.5 501.34c9.54,6.53 49.35,78.93 58.5,95.08 9.42,16.62 17.4,30.38 27.11,47.8 9.95,17.85 22.47,33.61 28.59,52.53 7.82,2.88 3.04,4.42 15.16,5.68 9.48,-4.91 3.31,0.32 9.4,-8.04 -1.56,-19.24 -54.12,-101.44 -66.85,-123.92 -12.13,-21.41 -23.45,-40.83 -35.42,-61.49 -22.85,-39.43 -22.68,-51.01 -44.77,-44.41 -5.04,22.89 6.2,18.41 8.28,36.77z"/>
  <path class="fil2 str0" d="M947.07 1162.25c12.58,10.1 42.71,6.41 64.85,6.41l93.29 0 94.22 0c11.29,-0.29 15.84,-2.62 20.62,-6.11l-1.3 -16.01 -19.78 -2.88 -93.41 -0.01 -94.2 0.02c-19.66,-0.03 -46.17,-1.8 -63.04,2.8l-1.25 15.78z"/>
  <path class="fil2 str0" d="M1074.21 784.21c11.87,4.78 25.72,10.72 33.07,20.52 16.74,1.96 110.25,61.83 134.31,74.7 14.78,7.91 31.22,23.01 47.79,17.18l3.18 -13.41 1.54 -1.51c-28.03,-18.29 -65.61,-39.97 -97.73,-57.01 -17.18,-9.11 -32.29,-18.59 -47.56,-27.4 -12.48,-7.19 -38.92,-20.36 -46.22,-29.92 -21.38,-2.89 -22.99,-21.06 -48.01,-15.18 -8.34,28.82 10.94,18.43 19.63,32.03z"/>
  <path class="fil2 str0" d="M2272.1 1162.25c12.43,9.86 31.48,6.4 52.6,6.4l92.94 0 94.46 0c14.99,0.05 25.94,-1.09 33.08,-6.08l-1.95 -17.03 -31.85 -1.87 -93.03 0 -94.47 0c-16.71,-0.04 -36.05,-1.13 -50.53,2.78l-1.25 15.8z"/>
  <path class="fil2 str0" d="M2216.27 1443.75l11.1 6.5c16.7,5.86 186.75,103.68 196.07,113.43 18.69,-5.3 17.6,-5.81 15.3,-23.61 -8.33,-3.11 -14.39,-6.17 -21.25,-11.49 -16.52,-7.4 -180.59,-102.89 -183.9,-107.26 -11.59,-4.12 -18.34,-9.79 -31.51,-6.2 -5.15,17.76 11.04,29.03 12.13,27.08 0.34,-0.61 1.41,0.99 2.06,1.55z"/>
  <path class="fil2 str0" d="M1733.64 412.16l0.01 94.67 -0.02 92.58 2.12 28.72 19.69 1.16 3.07 -27.83 0.16 -93.63 -0.09 -95.56c0.01,-17.58 1.53,-38.52 -2.91,-54.36l-18.95 1.17c-4.89,13.75 -3.14,35.62 -3.08,53.08z"/>
  <g id="_1394247303184">
   <path class="fil3" d="M1246.24 2133.14c0,12.16 -0.96,21.63 -2.89,28.39 -1.94,6.75 -5.41,12.64 -10.43,17.67 -8.69,8.69 -22.21,13.03 -40.56,13.03l-51.27 0 0 -206.25 51.56 0c18.35,0 31.67,4.24 39.98,12.74 4.82,4.83 8.2,10.33 10.14,16.51 1.93,6.18 2.89,14.78 2.89,25.79 0,15.83 -3.96,27.81 -11.88,35.92 -3.28,3.28 -6.85,5.69 -10.71,7.24 4.63,2.12 8.4,4.63 11.29,7.53 7.92,8.11 11.88,21.92 11.88,41.43zm-32.44 -2.32c0,-11.4 -1.93,-19.6 -5.8,-24.63 -3.86,-5.02 -10.14,-7.53 -18.83,-7.53l-15.64 0 0 64.31 15.64 0c8.89,0 15.21,-2.41 18.98,-7.24 3.76,-4.83 5.65,-13.13 5.65,-24.91zm-0.58 -87.78c0,-10.04 -1.79,-17.18 -5.36,-21.43 -3.57,-4.25 -9.61,-6.38 -18.11,-6.38l-16.22 0 0 55.91 16.22 0c8.31,0 14.29,-2.22 17.96,-6.66 3.67,-4.44 5.51,-11.59 5.51,-21.44zm128.91 24.05l-10.43 0c-7.34,0 -13.42,2.36 -18.25,7.09 -4.83,4.74 -7.24,11.16 -7.24,19.27l0 98.78 -30.71 0 0 -152.66 29.55 0 0 16.22c3.09,-4.64 7.53,-8.69 13.32,-12.17 6.96,-4.24 14.87,-6.37 23.76,-6.37l0 29.84zm50.69 125.14l-30.7 0 0 -148.61 30.7 0 0 148.61zm1.45 -172.07l-33.89 0 0 -33.89 33.89 0 0 33.89zm116.74 19.41l0 155.56c0,17.77 -4.34,30.99 -13.03,39.69 -8.31,8.3 -19.31,12.45 -33.03,12.45 -14.09,0 -25.1,-3.96 -33.02,-11.88 -8.5,-8.3 -12.75,-19.5 -12.75,-33.6l30.42 0c0,6.18 1.35,11.01 4.06,14.49 2.51,3.09 6.27,4.63 11.29,4.63 4.64,0 8.31,-1.64 11.01,-4.92 2.9,-3.67 4.35,-9.95 4.35,-18.83l0 -26.36c-2.51,3.28 -5.31,5.98 -8.4,8.11 -4.06,2.7 -9.18,4.05 -15.36,4.05 -10.62,0 -19.31,-3.76 -26.07,-11.3 -4.83,-5.6 -8.06,-12.93 -9.7,-22.01 -1.65,-9.08 -2.47,-22.31 -2.47,-39.69 0,-17.19 0.82,-30.32 2.47,-39.4 1.64,-9.07 4.87,-16.41 9.7,-22.01 6.76,-7.53 15.45,-11.3 26.07,-11.3 6.57,0 11.88,1.35 15.94,4.06 3.47,2.31 6.47,5.02 8.98,8.11l0 -9.85 29.54 0zm-30.7 98.49l0 -55.04c0,-6.37 -1.55,-11.1 -4.64,-14.19 -2.89,-2.9 -6.37,-4.35 -10.43,-4.35 -4.63,0 -8.4,2.03 -11.29,6.08 -3.29,4.25 -4.93,17.58 -4.93,39.98 0,22.4 1.64,35.73 4.93,39.98 3.28,3.86 7.04,5.79 11.29,5.79 4.25,0 7.73,-1.35 10.43,-4.06 3.09,-3.09 4.64,-7.82 4.64,-14.19zm152.37 54.17l-30.71 0 0 -109.79c0,-5.79 -1.4,-10.19 -4.2,-13.18 -2.8,-2.99 -6.42,-4.49 -10.86,-4.49 -4.44,0 -8.06,1.5 -10.86,4.49 -2.8,2.99 -4.2,7.39 -4.2,13.18l0 109.79 -30.71 0 0 -206.25 30.71 0 0 63.44c2.51,-3.48 5.5,-6.18 8.98,-8.11 4.44,-2.71 9.56,-4.06 15.35,-4.06 11.78,0 21.05,3.96 27.81,11.88 5.79,6.56 8.69,17.57 8.69,33.02l0 110.08zm87.78 0c-16.81,0 -29.17,-3.09 -37.08,-9.27 -10.24,-8.11 -15.36,-20.47 -15.36,-37.08l0 -78.79 -15.64 0 0 -23.47 15.64 0 0 -43.16 30.71 0 0 43.16 21.15 0 0 23.47 -21.15 0 0 77.05c0,13.72 7.24,20.57 21.73,20.57l0 27.52z"/>
   <path class="fil4" d="M1900.64 2133.14c0,12.16 -0.96,21.63 -2.9,28.39 -1.93,6.75 -5.4,12.64 -10.43,17.67 -8.69,8.69 -22.2,13.03 -40.55,13.03l-51.28 0 0 -206.25 51.57 0c18.34,0 31.67,4.24 39.98,12.74 4.82,4.83 8.2,10.33 10.13,16.51 1.94,6.18 2.9,14.78 2.9,25.79 0,15.83 -3.96,27.81 -11.88,35.92 -3.28,3.28 -6.85,5.69 -10.71,7.24 4.63,2.12 8.4,4.63 11.29,7.53 7.92,8.11 11.88,21.92 11.88,41.43zm-32.44 -2.32c0,-11.4 -1.94,-19.6 -5.8,-24.63 -3.86,-5.02 -10.14,-7.53 -18.83,-7.53l-15.64 0 0 64.31 15.64 0c8.89,0 15.21,-2.41 18.98,-7.24 3.76,-4.83 5.65,-13.13 5.65,-24.91zm-0.58 -87.78c0,-10.04 -1.79,-17.18 -5.36,-21.43 -3.58,-4.25 -9.61,-6.38 -18.11,-6.38l-16.22 0 0 55.91 16.22 0c8.31,0 14.29,-2.22 17.96,-6.66 3.67,-4.44 5.51,-11.59 5.51,-21.44zm128.91 24.05l-10.43 0c-7.34,0 -13.42,2.36 -18.25,7.09 -4.83,4.74 -7.24,11.16 -7.24,19.27l0 98.78 -30.71 0 0 -152.66 29.55 0 0 16.22c3.09,-4.64 7.53,-8.69 13.32,-12.17 6.96,-4.24 14.87,-6.37 23.76,-6.37l0 29.84zm103.41 125.14l-28.96 0 0 -13.03c-3.48,4.82 -6.57,8.2 -9.27,10.13 -5.03,3.48 -10.82,5.22 -17.38,5.22 -11.79,0 -21.35,-4.25 -28.68,-12.75 -6.18,-7.33 -9.27,-18.73 -9.27,-34.18 0,-14.48 4.73,-25.88 14.19,-34.18 7.92,-6.95 19.6,-10.43 35.05,-10.43l13.62 0 0 -21.15c0,-11.78 -4.93,-17.67 -14.78,-17.67 -4.24,0 -7.62,1.45 -10.13,4.35 -3.09,3.28 -4.64,8.01 -4.64,14.19l-30.71 0c0,-13.32 4.35,-24.33 13.04,-33.02 8.3,-8.31 19.02,-12.46 32.15,-12.46 14.3,0 25.11,3.77 32.45,11.3 8.88,8.88 13.32,20.86 13.32,35.92l0 107.76zm-30.7 -44.9l0 -22.59 -10.14 0c-7.34,0 -12.65,1.54 -15.93,4.63 -4.06,3.67 -6.09,9.37 -6.09,17.09 0,14.1 5.31,21.15 15.94,21.15 4.63,0 8.49,-1.84 11.58,-5.51 3.09,-3.66 4.64,-8.59 4.64,-14.77zm90.67 44.9l-30.71 0 0 -148.61 30.71 0 0 148.61zm1.45 -172.07l-33.9 0 0 -33.89 33.9 0 0 33.89zm120.22 172.07l-30.71 0 0 -109.79c0,-5.79 -1.4,-10.19 -4.2,-13.18 -2.8,-2.99 -6.42,-4.49 -10.86,-4.49 -4.44,0 -8.07,1.5 -10.87,4.49 -2.8,2.99 -4.2,7.39 -4.2,13.18l0 109.79 -30.7 0 0 -152.66 29.54 0 0 11.3c3.48,-4.64 6.86,-7.83 10.14,-9.56 4.44,-2.71 9.56,-4.06 15.36,-4.06 11.78,0 21.05,3.96 27.81,11.88 5.79,6.56 8.69,17.57 8.69,33.02l0 110.08zm116.16 -44.03c0,13.52 -4.54,24.82 -13.61,33.89 -8.31,8.31 -19.41,12.46 -33.32,12.46 -14.48,0 -25.68,-4.15 -33.6,-12.46 -9.08,-9.46 -13.62,-20.95 -13.62,-34.47l30.42 0c0,6.18 1.74,11.01 5.22,14.48 2.89,3.09 6.75,4.64 11.58,4.64 4.83,0 8.79,-1.45 11.88,-4.35 2.9,-2.51 4.34,-6.56 4.34,-12.16 0,-4.44 -1.06,-8.21 -3.18,-11.3 -2.32,-3.48 -6.28,-6.37 -11.88,-8.69l-20.28 -8.98c-10.43,-4.64 -17.86,-10.53 -22.3,-17.67 -3.29,-5.22 -4.93,-12.17 -4.93,-20.86 0,-12.55 4.44,-23.46 13.33,-32.73 8.5,-8.5 19.5,-12.75 33.02,-12.75 13.33,0 24.05,3.86 32.16,11.59 8.69,8.3 13.03,19.6 13.03,33.89l-30.12 0c0,-6.18 -1.45,-10.81 -4.35,-13.9 -2.9,-3.09 -6.47,-4.64 -10.72,-4.64 -4.63,0 -8.4,1.45 -11.3,4.35 -2.89,2.89 -4.34,6.76 -4.34,11.58 0,3.67 0.77,6.67 2.32,8.98 2.12,3.48 5.89,6.38 11.29,8.69l20.28 8.7c10.43,4.63 17.87,10.23 22.31,16.8 4.25,5.98 6.37,14.29 6.37,24.91z"/>
  </g>
  <path class="fil5 str1" d="M1824.06 1132.51l21.25 -7.56c8.02,-4.07 30.38,-4.73 41.04,-3.73 8.88,0.84 32.36,5.78 36.51,9.72 6.52,2.29 14.66,5.14 17.81,10.78 5.26,1.07 4.74,1.47 9.01,5.18 -3.85,5.09 -17.17,12.86 -22.8,13.61 -2.96,3.11 -1.38,1.72 -5.92,3.66 -2.13,0.91 -4.61,1.65 -7.34,2.82l-2.95 0.68 -14.99 3.8c-16.2,1.59 -34.12,3.04 -49.94,-2.23 -3.09,-0.74 -5.34,-1.21 -8.19,-2.19 -1.06,-0.37 -2.44,-0.92 -3.48,-1.41 -3.73,-1.75 -1.67,-0.74 -3.3,-1.93 -9.46,-1.02 -24.32,-11.94 -30.07,-16.81 5.34,-4.98 4.49,-4.14 11.49,-7.85 4.56,-2.42 7.6,-5.28 11.87,-6.54zm-94.77 58.73c-0.01,4.76 5.96,18.32 7.73,26.25 2.12,9.52 0.56,23.28 4.95,31.27l8.21 0.59c4.6,-8.93 2.86,-23.17 5.27,-33.19 2.03,-8.43 8.2,-21.59 8.98,-27.67zm0.04 -0.3l0.01 -0.14c6.14,-5.74 13.46,-23.34 25.7,-31.59 3.6,2.2 14.57,8.7 17.34,11.47l15.48 8.17c6.75,0.12 11.82,3.63 18.77,5.77 6.47,1.98 16.48,2.78 24.02,3.3 21.58,1.5 30.21,-2.61 48.57,-4.84l17.6 -7.53c7.48,-2.87 22.83,-10.92 26.14,-17 8.57,-0.25 1.02,-0.34 3.77,1.5l13.4 14.83 1.44 -0.06 3.04 7.26c12.99,20.83 20.25,44.37 18.69,70 -3.19,52.45 -36.92,96.65 -86.52,112.1 -25.59,7.96 -65.95,5.95 -94.43,5.47 -2.04,-23.16 4.05,-115.72 -2.7,-127.92 -14.68,-3.91 -10.2,12.93 -10.2,26.06 0.01,17.34 -1.65,108.12 1.31,111.83 8.38,5.7 85.61,2.19 98.51,-0.62 30,-6.53 49.45,-20.07 66.08,-36.47 29.7,-29.27 44.54,-68.86 39.41,-111.7 -1.4,-11.63 -5.39,-33.39 -11.57,-39.3l-0.51 -3.74c-2.6,-3.59 -3.55,-6.69 -5.6,-10.18 -1.97,-3.35 -3.4,-5.54 -5.6,-8.65 -4.94,-6.98 -9.1,-11.34 -13.49,-17.73 -2.61,-1.26 -1.05,0.03 -1.8,-3.17 3.09,-2.37 6.11,-6.04 8.91,-9.31 9.81,-15.67 10.86,-11.8 20.68,-35.17 19.58,-46.55 9.43,-96.6 -18.27,-133.75 -13.62,-18.26 -39.3,-38.57 -68.11,-46.96 -18.09,-5.27 -31.78,-5.64 -51.9,-5.62 -11.54,0.01 -49.21,-2.61 -56.79,2.42 -2.69,3.35 -1.25,94.92 -1.26,111.83 0,13.08 -4.46,30.01 10.19,26.05 7.01,-12.82 0.44,-104.2 2.7,-127.92 61.49,-0.81 112.07,-5.36 152.74,44.74 32.44,39.96 38.58,97.18 10.19,141.87 -1.38,2.17 -0.92,0.81 -2.35,3.92 -1.58,3.4 -0.87,1 -1.37,4.27l-1.45 -0.03 -13.34 14.71c-1.56,2.2 3.68,1.9 -3.69,1.72 -11.26,-16.67 -56.24,-29.62 -82.97,-29.73 -40.41,-0.15 -58.26,14 -85.06,28.9 -7.17,-4.99 -5.72,-8.35 -13.48,-11.75 -0.83,-4.21 -0.83,-3.71 -3.83,-8.43 -25.72,-40.48 -15.76,-59.47 -22.68,-72.04l-8.22 -0.59c-2.61,5.31 -4.89,34.31 -8.81,45.41 -4.63,13.09 -11.27,25.43 -19.42,35.31 -4.39,4.68 -6.22,9.06 -11.77,12.99 -85.23,-60.11 -142.53,-12.72 -156.41,-11.04 -2.54,3.56 0.46,0.34 -3.34,3.45 -0.62,0.5 -1.87,1.26 -2.78,1.88 -2.52,1.69 -3.07,1.97 -5.93,4.07l-2.29 2.03c-4.87,-4.8 -6.5,-6.71 -10.08,-11.6 -34.13,-40.94 -36.66,-107.27 -1.95,-151.77 42.22,-54.13 91.82,-49.23 155.48,-48.28 2.06,23.39 -4.12,115.41 2.71,127.9 14.63,4.03 10.19,-13.05 10.18,-26.04 0,-17.21 1.61,-108.24 -1.3,-111.83 -7.36,-4.93 -42.53,-2.41 -53.6,-2.42 -19.34,0 -33.35,-0.11 -51.3,4.59 -54.66,14.33 -94.54,62.07 -99.66,120.7 -4.34,49.61 20.24,78.43 22.32,87l2.79 -0.37c2.72,8.2 6.95,11.05 10.1,16.95l4.7 1.2c-1.52,6.32 -0.68,5.07 -6.15,7.59 -1.47,2.93 -2.49,4.39 -4.38,7.04 -1.31,1.85 -0.86,1.3 -2.11,2.74 -1.54,1.79 -1.15,1.33 -2.67,2.59 -1.21,2.95 -3.35,5.7 -5.26,9.4l-0.71 2.89c-4.78,1.46 -2.4,7.21 -8.68,12.26 -0.48,5.66 -4,13.12 -5.69,19.22 -5.89,21.19 -6.07,46.61 -1.01,67.11 12.26,49.73 51.67,89.61 102.8,100.84 13.05,2.87 89.99,6.31 98.55,0.62 1.6,-1.98 4.04,-139.46 -0.96,-144.24 -3.1,-2.97 -8.05,-1.96 -9.72,2.82 -1.78,5.08 0.72,113.93 -0.94,131.46 -73.6,0.97 -104.08,3.81 -147.48,-38.95 -14.34,-14.14 -26.83,-36.92 -31.63,-62.77 -4.24,-22.87 0.65,-64.75 12.35,-77.98 2.17,-4.52 4.62,-7.79 6.26,-11.56 2.87,-3.41 4.19,-4.84 6.8,-8.09 4.09,-5.11 1.28,-4.13 7.71,-8.22 0.66,-3.05 -1.36,0.19 2.3,-3.71l4.73 3.32c2.1,1.36 3.52,2 5.65,3.58 4.94,3.65 1.4,-0.01 4.17,4.14 10.88,1.31 37.75,26.53 93.88,16.8 5.46,-0.94 28.12,-6.94 29.02,-6.65 3.17,-3.38 0.36,-0.85 3.5,-2.93 0.75,-0.5 2.43,-1.39 3.34,-1.86 3.01,-1.58 5.09,-2.59 7.92,-3.69 2.93,-2.32 12.63,-8.43 15.45,-10.01 1.21,-1.91 -0.11,-7.95 9.69,4.26 4.49,5.58 10.71,8.63 17.19,25.25 0.17,0.14 0.44,0.14 0.51,0.41l3.25 2.99zm22.91 -1.82l-6.12 11.58 -6.04 -13.06c-2.97,-4.96 0.64,-0.63 -1.51,-1.67 -3.08,-11.72 -8.41,-13.79 -10.2,-21.21 -3.21,-2.24 -0.23,0.09 -2.71,-2.37 -0.69,-0.68 -2.06,-2.15 -2.3,-2.45 -3.37,-4.2 -1.95,-1.78 -3.74,-6.56 -1.2,-0.61 -2.7,-1.19 -4.31,-2.73 -3.93,-3.75 -0.83,-0.3 -2.88,-4.05 2.94,-4.73 1.25,-3.09 5.95,-5.21 3.02,-7.26 5.1,-6.36 8.39,-13.13l1.56 0 17.79 -35.75 17.73 35.82 1.66 0c3.22,6.78 4.33,4.51 7.41,11.96 1.5,0.36 2.62,0.98 3.99,2.23 3.71,3.39 1.24,1.02 3.27,4.08l-5 5.54c-2.01,2.19 -1.64,1.97 -3.47,4.33 -2.74,3.54 -4.11,5.07 -6.55,8.66l-12.67 19.76c-0.11,-0.25 -0.47,0.68 -0.73,0.99l0.48 3.24zm-200.75 -48.01c3.02,-4.81 10.91,-8.18 16.29,-10.66 18.59,-6.53 48.26,-15.16 70.86,-7.73 19.73,3.41 24.74,5.81 41.53,15.79 5.6,3.32 7.05,3.31 12,8.09l-10.86 7.74c-3.19,1.75 -6.67,3.74 -10.62,5.58 -4.7,2.98 -12.07,6.08 -18.02,6.32 -2.74,2.33 1.27,-0.14 -3.05,1.64 -0.91,0.37 -3.07,1.02 -3.58,1.16 -2.34,0.64 -4.73,1.11 -7.09,1.64l-8.74 0.21c-2.85,2.64 -7.89,1.7 -13.23,1.86 -5.19,0.16 -12.49,1.44 -14.69,-1.89l-6.61 -0.17c-2.63,-0.43 -5.5,-0.71 -7.99,-1.35 -6.87,-1.77 -3.83,-0.49 -6.32,-3.17l-4.08 -0.6c-3.92,-0.99 -4.61,-1.1 -8.32,-2.6 -4.37,-1.76 -4.31,-1.54 -7.04,-4.39 -6.68,-1.21 -15.43,-7.87 -18.93,-11.98 3.34,-3.9 2.95,-4.62 8.49,-5.49z"/>
  <path class="fil6" d="M1663.18 1832.65l166.03 -1.8 -15.75 11.66c-44.79,21 -111.75,17.3 -150.28,-9.86zm7.89 -84.88l90.88 -4.86 96.63 -4.96 87.4 -4.77c0.43,41.92 -4.32,33.77 -26.16,56.08 -22.24,22.72 -15.59,16.82 -64.35,16.94l-93.64 -0.01 -93.99 0.02c-81.36,-0.43 -66.26,12.07 -103.56,-24.48 -7.93,-7.79 -17.21,-11.7 -17.88,-25.55 11.96,-6.09 103.28,-7.48 124.67,-8.41zm184.73 -34.87c-23.98,1.1 -52.62,6.73 -75.58,1.68 -13.76,7.94 -89.48,6.92 -112.7,8.22 -21.88,1.12 -47.78,5.82 -68.56,1.15 -11.01,6.32 -37.38,4.97 -53.11,5.55l0.59 -50.42 26.85 -1.34c25.28,-1.08 65.01,-8.47 87.69,-2.06l101.39 -7.73c22.85,-1.64 52.63,-7.07 73.93,-1.59 8.07,-4.46 -1.57,-1.22 9.9,-3.04l42.13 -2.07c19.24,-1.02 38.53,-2.21 57.77,-2.94l-0.3 49.87 -90 4.72zm-309.53 -58.75l-0.44 -48.14 400.44 0.09 -0.65 27.03 -399.35 21.02zm399.86 -116.73l-0.02 43.78 -90.76 0 -93.52 -0.02 -94.21 0.04 -93.64 -0.06 -27.9 0.01 0.01 -39.12c83.01,-2.65 207.13,-4.62 400.04,-4.63zm-425.13 -22.15l0.11 22.27 0.04 94.35 -0.19 21.16c-10.81,6.15 -21.25,-0.33 -24.05,13.38 -3.12,15.31 11.59,14.62 24.25,14.21l0 43.21c-1.77,16.44 -20.23,-1.53 -24.23,17.58 -3.16,15.07 11.55,14.62 24.04,14.27 0.84,37.84 28.94,37.09 38.98,60.07 8.37,4.49 3.41,1.72 10.05,7.17 2.23,1.84 6.87,6.08 8.7,7.59l49.4 0.74c28.38,51.64 143.22,68.53 211.3,24.34 10.35,-6.72 2.51,-4.53 13.01,-7.21 4.62,-7.88 7.38,-9.41 11.76,-17.22 58.35,-0.01 44.17,5.04 75.1,-25.57 28.95,-28.65 30.2,-16.57 32.1,-71.3 11.41,-6.66 11.34,0.82 23.68,-9.79l-1.39 -15.5 -22.68 -3.11c0.24,-70.25 -1.26,-39.29 19.14,-52.84 8.15,-5.41 5.91,-9.67 2.9,-18.48l-22.05 -3.74 0.09 -92.8 0.09 -22.77c-94.02,-2.56 -348.69,-4.87 -450.15,-0.01z"/>
  <path class="fil7" d="M1796.48 1537.88c-111.07,0.74 -191.18,2.28 -250.39,4.17l-0.01 39.12 27.9 -0.01 93.64 0.06 94.21 -0.04 93.52 0.02 90.76 0 0.02 -43.32 -149.65 0z"/>
  <polygon class="fil8" points="1946.27,1606.1 1546.09,1606.01 1546.09,1634.87 1546.27,1654.15 1945.62,1633.13 "/>
  <path class="fil7" d="M1762.37 1667.95l-101.39 7.73c-22.68,-6.41 -62.41,0.98 -87.69,2.06l-26.85 1.34 -0.35 29.6 0 20.81c15.76,-0.56 41.92,0.75 52.87,-5.54 20.78,4.67 46.68,-0.03 68.56,-1.15 23.22,-1.3 98.94,-0.28 112.7,-8.22 22.96,5.05 51.6,-0.58 75.58,-1.68l90 -4.72 0.3 -49.87c-19.24,0.73 -38.53,1.92 -57.77,2.94l-42.13 2.07c-11.47,1.82 -1.83,-1.42 -9.9,3.04 -21.3,-5.48 -51.08,-0.05 -73.93,1.59z"/>
  <path class="fil8" d="M1761.95 1742.91l-90.88 4.86c-21.39,0.93 -112.71,2.32 -124.67,8.41 0.67,13.85 9.95,17.76 17.88,25.55 37.3,36.55 22.2,24.05 103.56,24.48l93.99 -0.02 93.64 0.01c48.76,-0.12 42.11,5.78 64.35,-16.94 21.84,-22.31 26.59,-14.16 26.16,-56.08l-87.4 4.77 -96.63 4.96z"/>
  <path class="fil7" d="M1829.21 1830.85l-166.03 1.8c38.53,27.16 105.49,30.86 150.28,9.86l15.75 -11.66z"/>
  <polygon class="fil9" points="1749.93,125.84 601.35,125.84 601.35,2419.31 1749.81,2419.31 1749.02,2305.38 715.8,2307.03 718.37,237.13 1749.85,238.65 "/>
  <polygon class="fil6" points="1746.09,125.84 2894.67,125.84 2894.67,2419.31 1746.21,2419.31 1747,2305.38 2780.22,2307.03 2777.64,237.13 1746.17,238.65 "/>
 </g>
</svg>
